<mxfile host="Electron" modified="2024-08-28T13:28:42.220Z" agent="Mozilla/5.0 (Windows NT 10.0; Win64; x64) AppleWebKit/537.36 (KHTML, like Gecko) draw.io/21.2.1 Chrome/112.0.5615.87 Electron/24.1.2 Safari/537.36" etag="HwM5kOAmKt5ODZejQLOH" version="21.2.1" type="device">
  <diagram name="第 1 页" id="qvMEZAxRcfkdHlF2laVr">
    <mxGraphModel dx="1100" dy="809" grid="1" gridSize="10" guides="1" tooltips="1" connect="1" arrows="1" fold="1" page="1" pageScale="1" pageWidth="827" pageHeight="1169" math="0" shadow="0">
      <root>
        <mxCell id="0" />
        <mxCell id="1" parent="0" />
        <mxCell id="XmZ_OWA6K7OfH9DnF8V5-3" value="截取字符&quot;/&quot;后的字符串，&#xa;作为实际文件" style="rounded=0;" vertex="1" parent="1">
          <mxGeometry x="367.5" y="800" width="165" height="40" as="geometry" />
        </mxCell>
        <mxCell id="XmZ_OWA6K7OfH9DnF8V5-7" value="生成奇偶位文件、&#xa;日志文件输出位置和特定文件名" style="rounded=0;" vertex="1" parent="1">
          <mxGeometry x="350" y="1010" width="200" height="40" as="geometry" />
        </mxCell>
        <mxCell id="XmZ_OWA6K7OfH9DnF8V5-8" value="" style="endArrow=classic;rounded=0;exitX=0.5;exitY=1;exitDx=0;exitDy=0;entryX=0.535;entryY=-0.034;entryDx=0;entryDy=0;entryPerimeter=0;" edge="1" parent="1" target="XmZ_OWA6K7OfH9DnF8V5-10">
          <mxGeometry width="50" height="50" relative="1" as="geometry">
            <mxPoint x="450" y="1050" as="sourcePoint" />
            <mxPoint x="450" y="1080" as="targetPoint" />
          </mxGeometry>
        </mxCell>
        <mxCell id="XmZ_OWA6K7OfH9DnF8V5-10" value="新建文件" style="rounded=0;" vertex="1" parent="1">
          <mxGeometry x="380" y="1080" width="130" height="50" as="geometry" />
        </mxCell>
        <mxCell id="XmZ_OWA6K7OfH9DnF8V5-26" value="将实际文件后缀去除，&#xa;取输入文件名" style="rounded=0;" vertex="1" parent="1">
          <mxGeometry x="367.5" y="870" width="165" height="40" as="geometry" />
        </mxCell>
        <mxCell id="XmZ_OWA6K7OfH9DnF8V5-27" value="获取输出文件路径" style="rounded=0;" vertex="1" parent="1">
          <mxGeometry x="367.5" y="940" width="165" height="40" as="geometry" />
        </mxCell>
        <mxCell id="XmZ_OWA6K7OfH9DnF8V5-28" value="" style="endArrow=classic;rounded=0;exitX=0.5;exitY=1;exitDx=0;exitDy=0;" edge="1" parent="1">
          <mxGeometry width="50" height="50" relative="1" as="geometry">
            <mxPoint x="449.71000000000004" y="770" as="sourcePoint" />
            <mxPoint x="449.71000000000004" y="800" as="targetPoint" />
          </mxGeometry>
        </mxCell>
        <mxCell id="XmZ_OWA6K7OfH9DnF8V5-29" value="" style="endArrow=classic;rounded=0;exitX=0.5;exitY=1;exitDx=0;exitDy=0;" edge="1" parent="1">
          <mxGeometry width="50" height="50" relative="1" as="geometry">
            <mxPoint x="449.71" y="840" as="sourcePoint" />
            <mxPoint x="449.71" y="870" as="targetPoint" />
          </mxGeometry>
        </mxCell>
        <mxCell id="XmZ_OWA6K7OfH9DnF8V5-30" value="" style="endArrow=classic;rounded=0;exitX=0.5;exitY=1;exitDx=0;exitDy=0;" edge="1" parent="1">
          <mxGeometry width="50" height="50" relative="1" as="geometry">
            <mxPoint x="449.71" y="910" as="sourcePoint" />
            <mxPoint x="449.71" y="940" as="targetPoint" />
          </mxGeometry>
        </mxCell>
        <mxCell id="XmZ_OWA6K7OfH9DnF8V5-31" value="" style="endArrow=classic;rounded=0;exitX=0.5;exitY=1;exitDx=0;exitDy=0;" edge="1" parent="1">
          <mxGeometry width="50" height="50" relative="1" as="geometry">
            <mxPoint x="448.46" y="980" as="sourcePoint" />
            <mxPoint x="448.46" y="1010" as="targetPoint" />
          </mxGeometry>
        </mxCell>
        <mxCell id="XmZ_OWA6K7OfH9DnF8V5-39" value="开始" style="rounded=1;" vertex="1" parent="1">
          <mxGeometry x="410" y="730" width="80" height="40" as="geometry" />
        </mxCell>
        <mxCell id="XmZ_OWA6K7OfH9DnF8V5-44" value="结束" style="rounded=1;" vertex="1" parent="1">
          <mxGeometry x="400" y="1160" width="100" height="50" as="geometry" />
        </mxCell>
        <mxCell id="XmZ_OWA6K7OfH9DnF8V5-45" value="" style="endArrow=classic;rounded=0;entryX=0.5;entryY=0;entryDx=0;entryDy=0;" edge="1" parent="1" target="XmZ_OWA6K7OfH9DnF8V5-44">
          <mxGeometry width="50" height="50" relative="1" as="geometry">
            <mxPoint x="450" y="1130" as="sourcePoint" />
            <mxPoint x="410" y="1080" as="targetPoint" />
          </mxGeometry>
        </mxCell>
      </root>
    </mxGraphModel>
  </diagram>
</mxfile>
